<?xml version="1.0" standalone="no"?>
<!DOCTYPE svg PUBLIC "-//W3C//DTD SVG 20010904//EN"
 "http://www.w3.org/TR/2001/REC-SVG-20010904/DTD/svg10.dtd">
<svg version="1.0" xmlns="http://www.w3.org/2000/svg"
 width="193.000000pt" height="193.000000pt" viewBox="0 0 193.000000 193.000000"
 preserveAspectRatio="xMidYMid meet">
<metadata>
Created by potrace 1.14, written by Peter Selinger 2001-2017
</metadata>
<g transform="translate(0.000000,193.000000) scale(0.100000,-0.100000)"
fill="#000000" stroke="none">
<path d="M810 1918 c-90 -12 -244 -67 -332 -117 -321 -184 -511 -553 -470
-914 23 -212 107 -398 246 -545 167 -176 361 -273 603 -303 323 -39 682 128
873 406 79 114 146 294 155 415 l5 65 -15 -80 c-39 -204 -124 -367 -269 -511
-168 -168 -394 -264 -620 -264 -67 0 -88 8 -33 12 14 1 23 6 21 10 -3 4 5 26
16 48 21 41 21 41 -20 53 -8 2 17 7 55 11 39 4 104 16 145 28 41 11 84 22 95
23 42 6 94 35 135 74 23 22 46 38 51 35 5 -3 9 -1 9 4 0 5 25 17 55 27 61 19
85 49 85 104 0 32 46 111 65 111 19 0 45 34 45 58 0 12 -4 22 -10 22 -6 0 -6
8 -1 23 63 160 65 371 4 541 -93 258 -317 455 -582 511 -40 8 -123 15 -184 16
-92 1 -105 3 -72 10 49 12 66 31 56 67 -14 51 -5 61 57 65 44 2 39 3 -23 4
-44 0 -109 -4 -145 -9z m-435 -314 c19 -13 28 -13 47 -3 13 7 -7 -19 -43 -58
-91 -97 -155 -203 -194 -324 -18 -56 -36 -96 -39 -90 -4 7 -20 -1 -41 -21 -19
-17 -44 -37 -55 -45 -18 -13 -20 -12 -20 9 0 48 22 156 47 228 45 135 137 279
231 361 l37 33 3 -37 c2 -26 10 -42 27 -53z m362 -16 c-3 -7 -5 -2 -5 12 0 14
2 19 5 13 2 -7 2 -19 0 -25z m301 16 c19 -6 22 -13 22 -58 0 -45 -3 -52 -20
-52 -13 0 -19 5 -15 14 2 7 0 10 -5 7 -6 -3 -10 -17 -10 -31 0 -13 -5 -32 -11
-42 -12 -19 -15 -13 160 -273 34 -52 65 -96 67 -98 3 -4 122 98 184 158 l35
34 -35 -25 c-56 -40 -64 -40 -85 -2 -12 22 -26 34 -39 34 -26 1 -66 33 -66 54
0 8 -5 18 -12 22 -7 5 -8 2 -3 -7 6 -10 5 -11 -3 -4 -6 6 -12 25 -14 42 -1 17
-7 31 -13 30 -5 -1 -9 6 -7 17 2 12 -1 16 -9 10 -9 -5 -10 -2 -6 9 3 9 1 17
-4 19 -5 2 -11 13 -11 25 -3 32 -26 16 -31 -20 -2 -18 -4 2 -4 43 0 41 1 67 4
58 2 -10 8 -18 11 -18 4 0 18 -3 31 -7 18 -4 22 -3 16 6 -5 8 3 7 23 -3 17 -9
36 -16 43 -16 31 0 203 -168 220 -215 15 -41 20 -42 44 -15 10 11 23 20 28 20
6 0 -18 -27 -51 -60 -34 -33 -62 -66 -62 -73 0 -21 -117 -254 -139 -276 l-21
-21 30 0 c32 0 41 -17 15 -26 -10 -4 -13 -13 -10 -25 5 -14 1 -19 -13 -19 -15
0 -21 -9 -26 -46 -12 -87 -8 -134 11 -134 15 0 14 -2 -3 -15 -15 -12 -16 -16
-5 -24 11 -7 10 -10 -5 -15 -36 -11 -734 0 -746 12 -16 16 18 28 36 13 8 -7
36 -11 63 -9 39 2 48 6 47 21 -1 9 2 17 6 17 5 0 8 41 8 90 0 70 -3 90 -14 90
-30 0 -12 18 29 27 40 10 40 11 10 12 -34 1 -53 19 -33 31 8 5 6 9 -8 12 -12
3 -30 29 -46 64 -94 202 -155 302 -187 303 -14 1 -45 49 -37 57 4 4 164 -130
233 -195 28 -26 55 -50 61 -54 11 -6 78 82 220 289 41 59 41 62 23 78 -10 8
-19 24 -19 33 1 17 1 17 11 1 20 -35 38 -21 36 27 -2 41 -12 56 -39 59 -5 1
-8 4 -8 9 0 4 0 14 0 22 0 12 14 15 63 15 34 0 72 -3 85 -6z m-536 -683 c-9
-26 -6 -35 -77 226 -40 147 -28 131 31 -42 40 -120 52 -166 46 -184z m954 71
c-13 -12 -17 8 -10 40 l9 33 3 -33 c2 -19 1 -36 -2 -40z m-946 -111 c0 -12
-20 -25 -27 -18 -7 7 6 27 18 27 5 0 9 -4 9 -9z"/>
<path d="M902 1587 c-8 -10 -6 -13 11 -14 12 0 16 1 9 4 -6 3 -10 9 -6 14 8
14 -2 11 -14 -4z"/>
<path d="M936 1378 c-10 -85 -7 -128 13 -152 7 -8 10 -19 7 -24 -3 -6 2 -16
11 -23 9 -8 14 -9 10 -2 -4 6 -1 18 7 26 8 8 12 17 9 21 -4 3 -2 6 4 6 5 0 10
6 10 13 0 6 3 30 6 52 4 30 0 52 -16 85 -32 65 -53 64 -61 -2z"/>
<path d="M1086 1110 c-3 -22 -11 -40 -17 -40 -5 0 -7 5 -3 11 3 6 -5 3 -20 -6
-15 -10 -26 -13 -26 -6 0 16 -27 13 -34 -4 -7 -20 -26 -19 -42 3 -12 16 -15
15 -43 -15 -36 -40 -91 -47 -91 -13 0 28 32 89 38 72 2 -7 -4 -24 -13 -38 -9
-14 -14 -28 -12 -31 7 -6 33 35 42 65 10 35 -22 28 -45 -10 -24 -40 -26 -86
-4 -95 10 -3 31 -1 48 6 17 7 49 16 71 20 23 4 47 11 55 16 23 14 59 12 65 -4
5 -12 12 -9 32 14 34 36 45 14 12 -24 -13 -15 -9 -12 9 6 33 34 35 53 5 53
-11 0 -14 8 -11 30 3 17 1 30 -2 30 -4 0 -10 -18 -14 -40z m-11 -58 c-3 -3
-11 0 -18 7 -9 10 -8 11 6 5 10 -3 15 -9 12 -12z"/>
<path d="M905 966 c-16 -14 -24 -25 -16 -26 10 0 11 -4 3 -12 -6 -7 -14 -31
-18 -53 -4 -22 -9 -34 -11 -27 -3 6 -14 12 -26 12 -20 -1 -20 -2 -4 -11 24
-14 12 -29 -22 -29 -26 0 -29 -4 -37 -47 l-7 -48 -10 48 c-9 45 -11 47 -43 47
l-34 0 0 -85 c0 -84 0 -85 25 -85 23 0 25 4 26 53 l2 52 10 -53 c12 -66 39
-70 47 -7 l6 40 8 -42 c7 -36 11 -43 31 -43 23 0 24 4 28 78 l3 77 2 -77 2
-78 29 0 c25 0 30 5 34 28 4 25 4 24 6 -6 0 -21 -4 -34 -14 -37 -51 -16 -50
-16 -35 -25 25 -16 126 -12 140 5 9 10 9 15 1 15 -6 0 -11 5 -11 10 0 6 11 10
25 10 25 0 25 0 25 93 0 59 4 97 12 105 9 9 8 12 -5 12 -9 0 -17 7 -17 15 0
11 12 15 43 17 40 1 39 2 -13 7 -61 7 -80 -1 -80 -33 0 -18 -6 -22 -40 -23
-38 -2 -40 0 -34 23 4 14 1 31 -6 39 -10 12 -9 15 4 15 9 0 19 7 23 16 3 8 12
13 19 10 10 -4 11 1 5 17 -11 31 -41 32 -76 3z m68 -143 c-7 -2 -19 -2 -25 0
-7 3 -2 5 12 5 14 0 19 -2 13 -5z m2 -33 c8 7 20 10 27 8 8 -3 2 -12 -15 -23
-24 -15 -31 -16 -52 -5 -13 7 -22 17 -19 22 3 4 14 3 25 -3 15 -7 24 -7 34 1z"/>
<path d="M853 923 c-3 -10 -8 -21 -10 -25 -2 -5 0 -8 5 -8 5 0 12 11 14 25 6
29 0 33 -9 8z"/>
<path d="M950 885 c0 -14 5 -25 10 -25 6 0 10 11 10 25 0 14 -4 25 -10 25 -5
0 -10 -11 -10 -25z"/>
<path d="M1090 735 c0 -83 0 -85 24 -85 20 0 25 6 29 33 l3 32 13 -32 c10 -25
19 -33 37 -33 23 0 24 1 11 32 -11 28 -11 37 2 59 13 24 13 29 -2 53 -15 22
-25 26 -67 26 l-50 0 0 -85z m74 26 c3 -5 -1 -14 -9 -21 -13 -10 -15 -9 -15 9
0 21 14 28 24 12z"/>
<path d="M1073 1913 c9 -2 23 -2 30 0 6 3 -1 5 -18 5 -16 0 -22 -2 -12 -5z"/>
<path d="M1138 1903 c7 -3 16 -2 19 1 4 3 -2 6 -13 5 -11 0 -14 -3 -6 -6z"/>
<path d="M1871 1154 c0 -11 3 -14 6 -6 3 7 2 16 -1 19 -3 4 -6 -2 -5 -13z"/>
<path d="M1882 1100 c0 -14 2 -19 5 -12 2 6 2 18 0 25 -3 6 -5 1 -5 -13z"/>
<path d="M1892 975 c0 -16 2 -22 5 -12 2 9 2 23 0 30 -3 6 -5 -1 -5 -18z"/>
</g>
</svg>
