<svg width="23" height="23" viewBox="0 0 23 23" fill="none" xmlns="http://www.w3.org/2000/svg">
<path fill-rule="evenodd" clip-rule="evenodd" d="M21.5625 11.5C21.5625 14.1687 20.5023 16.7282 18.6153 18.6153C16.7282 20.5023 14.1687 21.5625 11.5 21.5625C8.83126 21.5625 6.27182 20.5023 4.38474 18.6153C2.49765 16.7282 1.4375 14.1687 1.4375 11.5C1.4375 8.83126 2.49765 6.27182 4.38474 4.38474C6.27182 2.49765 8.83126 1.4375 11.5 1.4375C14.1687 1.4375 16.7282 2.49765 18.6153 4.38474C20.5023 6.27182 21.5625 8.83126 21.5625 11.5ZM0 11.5C0 14.55 1.2116 17.4751 3.36827 19.6317C5.52494 21.7884 8.45001 23 11.5 23C14.55 23 17.4751 21.7884 19.6317 19.6317C21.7884 17.4751 23 14.55 23 11.5C23 8.45001 21.7884 5.52494 19.6317 3.36827C17.4751 1.2116 14.55 0 11.5 0C8.45001 0 5.52494 1.2116 3.36827 3.36827C1.2116 5.52494 0 8.45001 0 11.5ZM16.5312 10.7812C16.7219 10.7812 16.9047 10.857 17.0395 10.9918C17.1743 11.1266 17.25 11.3094 17.25 11.5C17.25 11.6906 17.1743 11.8734 17.0395 12.0082C16.9047 12.143 16.7219 12.2188 16.5312 12.2188H8.20381L11.2901 15.3036C11.357 15.3705 11.41 15.4498 11.4461 15.5371C11.4823 15.6244 11.5009 15.718 11.5009 15.8125C11.5009 15.907 11.4823 16.0006 11.4461 16.0879C11.41 16.1752 11.357 16.2545 11.2901 16.3214C11.2233 16.3882 11.144 16.4412 11.0567 16.4774C10.9693 16.5135 10.8758 16.5322 10.7812 16.5322C10.6867 16.5322 10.5932 16.5135 10.5058 16.4774C10.4185 16.4412 10.3392 16.3882 10.2724 16.3214L5.95988 12.0089C5.89294 11.9421 5.83984 11.8628 5.8036 11.7755C5.76737 11.6882 5.74872 11.5945 5.74872 11.5C5.74872 11.4055 5.76737 11.3118 5.8036 11.2245C5.83984 11.1372 5.89294 11.0579 5.95988 10.9911L10.2724 6.67863C10.3392 6.6118 10.4185 6.55879 10.5058 6.52262C10.5932 6.48646 10.6867 6.46784 10.7812 6.46784C10.8758 6.46784 10.9693 6.48646 11.0567 6.52262C11.144 6.55879 11.2233 6.6118 11.2901 6.67863C11.357 6.74545 11.41 6.82479 11.4461 6.9121C11.4823 6.99941 11.5009 7.09299 11.5009 7.1875C11.5009 7.28201 11.4823 7.37559 11.4461 7.4629C11.41 7.55021 11.357 7.62955 11.2901 7.69637L8.20381 10.7812H16.5312Z" fill="white"/>
</svg>
